<svg width="41" height="35" fill="none" xmlns="http://www.w3.org/2000/svg"><path d="M20.84 24.72a.68.68 0 0 0-.687.672v1.324a.68.68 0 0 0 .687.671.678.678 0 0 0 .686-.67v-1.325a.68.68 0 0 0-.686-.671Z" fill="#fff" stroke="#fff" stroke-width=".1"/><path d="M37.558 15.443a13.125 13.125 0 0 0-2.926-5.883 13.654 13.654 0 0 0-5.22-3.716c-.33-1.336-1.02-2.714-2.373-3.751C25.72 1.083 24.393.888 24.334.88a.699.699 0 0 0-.547.157.664.664 0 0 0-.237.507v3.304h-2.225c-.589-1.914-2.41-3.312-4.562-3.312-2.198 0-4.053 1.46-4.6 3.439a13.676 13.676 0 0 0-8.194 4.23l.037.034-.037-.034a13.044 13.044 0 0 0-3.519 8.9c0 7.39 3.934 13.4 5.14 15.065a2.06 2.06 0 0 0 1.668.841H9.97c1.127 0 2.046-.894 2.046-1.995v-.802c.67.098 1.35.148 2.03.148h6.108v.654c0 1.101.919 1.995 2.046 1.995h2.977c.958 0 1.8-.662 2-1.577l.32-1.456c4.177-1.002 7.536-3.859 9.2-7.565h2.488c.752 0 1.366-.597 1.366-1.334V16.78a1.31 1.31 0 0 0-.4-.944 1.374 1.374 0 0 0-.966-.39H37.56v-.003Zm1.618 6.586v.042h-1.965c.336-1.044.543-2.14.603-3.269a.677.677 0 0 0-.65-.705.681.681 0 0 0-.722.635c-.267 5.023-3.756 9.317-8.62 10.767l.872-3.966a.671.671 0 0 0-.528-.798.687.687 0 0 0-.816.516l-1.517 6.901a.672.672 0 0 1-.656.517h-2.979a.664.664 0 0 1-.671-.653v-2.65a.68.68 0 0 0-.687-.671.678.678 0 0 0-.687.67v.655h-6.107c-.682 0-1.363-.056-2.031-.165V25.39a.679.679 0 0 0-.687-.67.68.68 0 0 0-.687.67v6.625c0 .359-.3.654-.672.654H7.26a.665.665 0 0 1-.548-.274c-1.147-1.586-4.887-7.3-4.887-14.291 0-2.964 1.123-5.804 3.162-7.998l-.036-.034.036.034a12.286 12.286 0 0 1 7.018-3.75c.015.387.08.77.191 1.14h-.188a.68.68 0 0 0-.687.671.68.68 0 0 0 .687.671h9.512a.68.68 0 0 0 .687-.67.68.68 0 0 0-.687-.672h-.188c.128-.422.195-.863.196-1.307h2.023v1.316a.68.68 0 0 0 .687.671.68.68 0 0 0 .687-.671V2.432c.594.23 1.419.678 2.105 1.533.711.888 1.277 2.217 1.277 4.204a.68.68 0 0 0 .687.67.68.68 0 0 0 .687-.67c0-.238-.008-.488-.026-.746a12.265 12.265 0 0 1 3.929 3.004 11.793 11.793 0 0 1 2.629 5.284c.13.625.693 1.078 1.337 1.078h1.627v5.24ZM16.763 2.878c1.87 0 3.39 1.483 3.39 3.303 0 .455-.098.903-.282 1.317h-6.215a3.236 3.236 0 0 1-.282-1.317c0-1.82 1.52-3.303 3.39-3.303Z" fill="#fff" stroke="#fff" stroke-width=".1"/><path d="M28.412 15.883c.403-1.055 1.469-1.761 2.65-1.761 1.181 0 2.247.706 2.65 1.76l-.046.019a.617.617 0 0 1-.374.799l-4.88-.817Zm0 0a.667.667 0 0 0 .404.864m-.404-.864.404.864m0 0a.692.692 0 0 0 .883-.395l-.884.395Zm4.253.042a.7.7 0 0 0 .24-.043l-3.61-.394c.202-.53.749-.888 1.363-.888s1.161.359 1.363.888c.104.27.366.437.644.437Zm-13.357 1.729c-.652-.442-1.492-.712-2.262-.925v-3.079c.595.078 1.098.25 1.455.463.37.221.568.477.568.706a.68.68 0 0 0 .687.671.68.68 0 0 0 .687-.671c0-.656-.374-1.242-.988-1.685-.605-.436-1.446-.737-2.409-.835v-.026a.68.68 0 0 0-.687-.671.68.68 0 0 0-.687.67v.027c-.962.098-1.804.399-2.408.835-.615.443-.989 1.03-.989 1.685 0 .927.472 1.558 1.136 2.009.651.442 1.491.712 2.261.925v3.078c-.595-.077-1.098-.249-1.454-.462-.371-.221-.569-.478-.569-.706a.68.68 0 0 0-.687-.671.68.68 0 0 0-.687.67c0 .657.374 1.243.989 1.686.604.436 1.446.737 2.408.835v.026a.68.68 0 0 0 .687.671.68.68 0 0 0 .687-.67v-.027c.963-.098 1.804-.399 2.409-.835.614-.443.988-1.03.988-1.685 0-.928-.471-1.559-1.135-2.009Zm-3.636-4.004v2.697c-.747-.233-1.251-.454-1.57-.695-.323-.246-.453-.51-.453-.833 0-.229.198-.485.569-.707.356-.212.86-.385 1.454-.462Zm2.829 6.72c-.357.212-.86.384-1.455.462v-2.697c.748.233 1.252.454 1.57.695.324.246.453.51.453.833 0 .228-.197.485-.568.706Z" fill="#fff" stroke="#fff" stroke-width=".1"/></svg>