<svg width="34" height="32" viewBox="0 0 34 32" fill="none" xmlns="http://www.w3.org/2000/svg">
<path d="M24.5967 2.19869C24.334 0.945985 23.1934 0 21.829 0C21.5172 0 21.2641 0.245703 21.2641 0.549672C21.2641 0.85364 21.5172 1.09934 21.829 1.09934C22.7635 1.09934 23.5239 1.8392 23.5239 2.74836C23.5239 3.65752 22.7635 4.39738 21.829 4.39738C21.5172 4.39738 21.2641 4.64308 21.2641 4.94705C21.2641 5.25102 21.5172 5.49672 21.829 5.49672C23.1928 5.49672 24.334 4.55073 24.5967 3.29803H31.998V8.24508H1.49118V3.29803H9.40035H11.0952C11.407 3.29803 11.6601 3.05233 11.6601 2.74836C11.6601 2.44439 11.407 2.19869 11.0952 2.19869H10.0692C10.3031 1.55997 10.9246 1.09934 11.6601 1.09934C12.5945 1.09934 13.3549 1.8392 13.3549 2.74836C13.3549 3.65752 12.5945 4.39738 11.6601 4.39738C11.3483 4.39738 11.0952 4.64308 11.0952 4.94705C11.0952 5.25102 11.3483 5.49672 11.6601 5.49672C13.2177 5.49672 14.4848 4.2638 14.4848 2.74836C14.4848 1.23291 13.2177 0 11.6601 0C10.2963 0 9.15516 0.945985 8.89247 2.19869H0.361298V9.34442V31.3313H33.1279V9.34442V2.19869H24.5967ZM31.998 30.232H1.49118V9.34442H31.998V30.232Z" fill="white"/>
<path d="M15.0497 1.09934C15.9842 1.09934 16.7446 1.8392 16.7446 2.74836C16.7446 3.65752 15.9842 4.39738 15.0497 4.39738C14.7379 4.39738 14.4848 4.64308 14.4848 4.94705C14.4848 5.25102 14.7379 5.49672 15.0497 5.49672C16.6073 5.49672 17.8744 4.2638 17.8744 2.74836C17.8744 1.23291 16.6073 0 15.0497 0C14.7379 0 14.4848 0.245703 14.4848 0.549672C14.4848 0.85364 14.7379 1.09934 15.0497 1.09934Z" fill="white"/>
<path d="M18.4394 1.09934C19.3738 1.09934 20.1342 1.8392 20.1342 2.74836C20.1342 3.65752 19.3738 4.39738 18.4394 4.39738C18.1275 4.39738 17.8745 4.64308 17.8745 4.94705C17.8745 5.25102 18.1275 5.49672 18.4394 5.49672C19.9969 5.49672 21.2641 4.2638 21.2641 2.74836C21.2641 1.23291 19.9969 0 18.4394 0C18.1275 0 17.8745 0.245703 17.8745 0.549672C17.8745 0.85364 18.1275 1.09934 18.4394 1.09934Z" fill="white"/>
<path d="M5.44576 13.7416H17.8745C18.1863 13.7416 18.4394 13.4959 18.4394 13.1919C18.4394 12.8879 18.1863 12.6422 17.8745 12.6422H5.44576C5.13391 12.6422 4.88082 12.8879 4.88082 13.1919C4.88082 13.4959 5.13391 13.7416 5.44576 13.7416Z" fill="white"/>
<path d="M28.0434 21.4373H19.5693C19.2574 21.4373 19.0043 21.683 19.0043 21.9869C19.0043 22.2909 19.2574 22.5366 19.5693 22.5366H28.0434C28.3552 22.5366 28.6083 22.2909 28.6083 21.9869C28.6083 21.683 28.3552 21.4373 28.0434 21.4373Z" fill="white"/>
<path d="M5.44576 18.1395H11.0952C11.407 18.1395 11.6601 17.8938 11.6601 17.5898C11.6601 17.2859 11.407 17.0402 11.0952 17.0402H5.44576C5.13391 17.0402 4.88082 17.2859 4.88082 17.5898C4.88082 17.8938 5.13391 18.1395 5.44576 18.1395Z" fill="white"/>
<path d="M28.0434 25.8347H22.394C22.0821 25.8347 21.829 26.0804 21.829 26.3844C21.829 26.6884 22.0821 26.9341 22.394 26.9341H28.0434C28.3552 26.9341 28.6083 26.6884 28.6083 26.3844C28.6083 26.0804 28.3552 25.8347 28.0434 25.8347Z" fill="white"/>
<path d="M16.1796 17.5898C16.1796 17.8938 16.4327 18.1395 16.7446 18.1395H25.2187C25.5305 18.1395 25.7836 17.8938 25.7836 17.5898C25.7836 17.2859 25.5305 17.0402 25.2187 17.0402H16.7446C16.4327 17.0402 16.1796 17.2859 16.1796 17.5898Z" fill="white"/>
<path d="M14.321 17.9799C14.4227 17.8754 14.4848 17.7325 14.4848 17.5896C14.4848 17.4462 14.4227 17.3032 14.321 17.1993C14.1119 16.996 13.7278 16.996 13.5188 17.1993C13.4171 17.3032 13.3549 17.4462 13.3549 17.5896C13.3549 17.7325 13.4171 17.8754 13.5188 17.9799C13.6261 18.0838 13.773 18.1393 13.9199 18.1393C14.0668 18.1393 14.2136 18.0838 14.321 17.9799Z" fill="white"/>
<path d="M7.70552 21.9869C7.70552 22.2909 7.95861 22.5366 8.27046 22.5366H16.7446C17.0564 22.5366 17.3095 22.2909 17.3095 21.9869C17.3095 21.683 17.0564 21.4373 16.7446 21.4373H8.27046C7.95861 21.4373 7.70552 21.683 7.70552 21.9869Z" fill="white"/>
<path d="M5.44576 22.5366C5.59264 22.5366 5.73953 22.4761 5.84687 22.3772C5.94856 22.2727 6.0107 22.1298 6.0107 21.9869C6.0107 21.8434 5.94856 21.7005 5.84687 21.6021C5.63784 21.3932 5.25368 21.3932 5.04465 21.5966C4.94296 21.7005 4.88082 21.8434 4.88082 21.9869C4.88082 22.1298 4.94296 22.2727 5.04465 22.3772C5.15199 22.4761 5.29323 22.5366 5.44576 22.5366Z" fill="white"/>
<path d="M28.0434 18.1393C28.1903 18.1393 28.3371 18.0838 28.4445 17.9799C28.5518 17.8754 28.6083 17.7325 28.6083 17.5896C28.6083 17.4462 28.5518 17.3032 28.4445 17.1993C28.2298 16.996 27.8513 16.996 27.6423 17.1993C27.5406 17.3032 27.4784 17.4462 27.4784 17.5896C27.4784 17.7325 27.5406 17.8754 27.6423 17.9799C27.7496 18.0838 27.8965 18.1393 28.0434 18.1393Z" fill="white"/>
<path d="M19.5693 25.8347H5.44576C5.13391 25.8347 4.88082 26.0804 4.88082 26.3844C4.88082 26.6884 5.13391 26.9341 5.44576 26.9341H19.5693C19.8811 26.9341 20.1342 26.6884 20.1342 26.3844C20.1342 26.0804 19.8811 25.8347 19.5693 25.8347Z" fill="white"/>
</svg>
