<svg width="34" height="32" fill="none" xmlns="http://www.w3.org/2000/svg"><path d="M24.597 2.199C24.334.946 23.193 0 21.829 0a.557.557 0 0 0-.565.55c0 .304.253.55.565.55.934 0 1.695.74 1.695 1.648 0 .91-.76 1.65-1.695 1.65a.557.557 0 0 0-.565.55c0 .303.253.549.565.549 1.364 0 2.505-.946 2.768-2.199h7.401v4.947H1.491V3.298h9.604a.557.557 0 0 0 .565-.55.557.557 0 0 0-.565-.55H10.07A1.69 1.69 0 0 1 11.66 1.1c.934 0 1.695.74 1.695 1.65 0 .909-.76 1.648-1.695 1.648a.557.557 0 0 0-.565.55c0 .304.253.55.565.55 1.558 0 2.825-1.233 2.825-2.749S13.218 0 11.66 0c-1.364 0-2.505.946-2.768 2.199H.362V31.33h32.766V2.2h-8.531Zm7.401 28.033H1.491V9.344h30.507v20.888Z" fill="#fff"/><path d="M15.05 1.1c.934 0 1.695.74 1.695 1.648 0 .91-.76 1.65-1.695 1.65a.557.557 0 0 0-.565.55c0 .303.253.549.565.549 1.557 0 2.824-1.233 2.824-2.749C17.874 1.233 16.607 0 15.05 0a.557.557 0 0 0-.565.55c0 .304.253.55.565.55Zm3.39 0c.934 0 1.694.74 1.694 1.648 0 .91-.76 1.65-1.695 1.65a.557.557 0 0 0-.564.55c0 .303.253.549.564.549 1.558 0 2.825-1.233 2.825-2.749C21.264 1.233 19.997 0 18.44 0a.557.557 0 0 0-.564.55c0 .304.253.55.564.55ZM5.446 13.742h12.429a.557.557 0 0 0 .564-.55.557.557 0 0 0-.564-.55H5.445a.557.557 0 0 0-.564.55c0 .304.253.55.565.55Zm22.597 7.695H19.57a.557.557 0 0 0-.565.55c0 .304.253.55.565.55h8.474a.557.557 0 0 0 .565-.55.557.557 0 0 0-.565-.55ZM5.446 18.14h5.65a.557.557 0 0 0 .564-.55.557.557 0 0 0-.565-.55h-5.65a.557.557 0 0 0-.564.55c0 .304.253.55.565.55Zm22.597 7.695h-5.649a.557.557 0 0 0-.565.55c0 .303.253.55.565.55h5.65a.557.557 0 0 0 .564-.55.557.557 0 0 0-.565-.55ZM16.18 17.59c0 .304.253.55.565.55h8.474a.557.557 0 0 0 .565-.55.557.557 0 0 0-.565-.55h-8.474a.557.557 0 0 0-.565.55Zm-1.859.39a.57.57 0 0 0 .164-.39.568.568 0 0 0-.164-.39.604.604 0 0 0-.802 0 .568.568 0 0 0-.164.39.57.57 0 0 0 .164.39.58.58 0 0 0 .4.16.58.58 0 0 0 .402-.16Zm-6.615 4.007c0 .304.253.55.564.55h8.475a.557.557 0 0 0 .564-.55.557.557 0 0 0-.564-.55H8.27a.557.557 0 0 0-.564.55Zm-2.26.55c.147 0 .294-.06.4-.16a.57.57 0 0 0 .165-.39.545.545 0 0 0-.164-.385.598.598 0 0 0-.802-.005.568.568 0 0 0-.164.39.57.57 0 0 0 .164.39c.107.1.248.16.4.16Zm22.597-4.397a.58.58 0 0 0 .402-.16.546.546 0 0 0 0-.78.604.604 0 0 0-.803 0 .568.568 0 0 0-.164.39.57.57 0 0 0 .164.39.58.58 0 0 0 .401.16Zm-8.473 7.695H5.445a.557.557 0 0 0-.565.55c0 .303.253.55.565.55h14.123a.557.557 0 0 0 .565-.55.557.557 0 0 0-.565-.55Z" fill="#fff"/></svg>