<svg width="33" height="33" fill="none" xmlns="http://www.w3.org/2000/svg"><path fill-rule="evenodd" clip-rule="evenodd" d="M3.25 1.382A.39.39 0 0 1 3.648 1h28.663a.39.39 0 0 1 .399.382v27.622a.39.39 0 0 1-.398.382.39.39 0 0 1-.399-.382V1.764H3.648a.39.39 0 0 1-.398-.382Z" fill="#fff" stroke="#fff" stroke-width=".5"/><path d="M3.668 29.562h.125V5.678l1.626 1.626a.52.52 0 1 0 .735-.735L3.641 4.055a.52.52 0 0 0-.736 0L.392 6.57a.52.52 0 1 0 .735.735l1.626-1.626v23.884h.915Z" fill="#fff" stroke="#fff" stroke-width=".25"/><path d="M2.752 29.832v.125H26.76l-1.634 1.626a.519.519 0 0 0 0 .735.524.524 0 0 0 .738 0l2.526-2.513a.518.518 0 0 0 0-.736l-2.526-2.513a.523.523 0 0 0-.738 0 .519.519 0 0 0 0 .735l1.634 1.626H2.752v.915Z" fill="#fff" stroke="#fff" stroke-width=".25"/><path fill-rule="evenodd" clip-rule="evenodd" d="M14.162 1.116a.395.395 0 0 1 0 .558l-4.74 4.74a.395.395 0 0 1-.558-.559l4.74-4.74a.395.395 0 0 1 .558 0Zm18.3 18.826a.395.395 0 0 1 0 .558l-4.344 4.345a.395.395 0 0 1-.559-.558l4.345-4.345a.395.395 0 0 1 .558 0ZM20.085 1.114a.395.395 0 0 1 .003.558L9.82 12.073a.395.395 0 0 1-.562-.555l10.268-10.4a.395.395 0 0 1 .559-.004Zm12.509 12.245a.395.395 0 0 1 0 .559L22.588 23.922a.395.395 0 0 1-.558-.558l10.005-10.006a.395.395 0 0 1 .559 0Zm-6.186-12.11a.395.395 0 0 1-.004.559L9.947 18a.395.395 0 1 1-.554-.563L25.85 1.244a.395.395 0 0 1 .558.005Zm6.186 5.923a.395.395 0 0 1 0 .558L16.006 24.318a.395.395 0 1 1-.559-.558L32.035 7.172a.395.395 0 0 1 .559 0Zm-.264-5.925a.395.395 0 0 1 0 .558L9.687 24.45a.395.395 0 1 1-.558-.559L31.772 1.247a.395.395 0 0 1 .559 0Z" fill="#fff" stroke="#fff" stroke-width=".5" stroke-linecap="round" stroke-linejoin="round"/></svg>